[center]
[URL=http://img7.imageshack.us/i/planetdinosaur.jpg/][IMG]http://img7.imageshack.us/img7/7870/planetdinosaur.jpg[/IMG][/URL]
-=-=-=-=-=-=-=-=-=-=-=-

[b]Planet Dinosaur Files[/b]

Presenter Jem Stansfield explores the prehistoric world of the dinosaurs, offering insights into the way they lived
This episode Examines the Bite strength of some of the largest Predators.

Category General Children's/Youth

Cast
Presenter Jem Stansfield 
 
-=-=-=-=-=-=-=-=-=-

[b]File info[/b]

Format                           : AVI
Format/Info                      : Audio Video Interleave
File size                        : 351 MiB
Duration                         : 27mn 40s
Overall bit rate                 : 1 772 Kbps
Writing library                  : VirtualDub build 32842/release

Video
ID                               : 0
Format                           : MPEG-4 Visual
Format profile                   : Simple@L1
Format settings, BVOP            : No
Format settings, QPel            : No
Format settings, GMC             : No warppoints
Format settings, Matrix          : Default (H.263)
Codec ID                         : XVID
Codec ID/Hint                    : XviD
Duration                         : 27mn 40s
Bit rate                         : 1 634 Kbps
Width                            : 720 pixels
Height                           : 420 pixels
Display aspect ratio             : 16:9
Frame rate                       : 25.000 fps
Color space                      : YUV
Chroma subsampling               : 4:2:0
Bit depth                        : 8 bits
Scan type                        : Progressive
Compression mode                 : Lossy
Bits/(Pixel*Frame)               : 0.216
Stream size                      : 324 MiB (92%)
Writing library                  : Lavc52.41.0

Audio
ID                               : 1
Format                           : MPEG Audio
Format version                   : Version 1
Format profile                   : Layer 3
Mode                             : Joint stereo
Mode extension                   : MS Stereo
Codec ID                         : 55
Codec ID/Hint                    : MP3
Duration                         : 27mn 40s
Bit rate mode                    : Constant
Bit rate                         : 128 Kbps
Channel(s)                       : 2 channels
Sampling rate                    : 48.0 KHz
Compression mode                 : Lossy
Stream size                      : 25.3 MiB (7%)
Alignment                        : Split accross interleaves
Interleave, duration             : 40 ms (1.00 video frame)
Interleave, preload duration     : 500 ms


spoken language: Engish

--------------------------------

[b]Screenshots[/b]

[URL=http://img153.imageshack.us/i/planetdinosaurfiless01e.jpg/][IMG]http://img153.imageshack.us/img153/6783/planetdinosaurfiless01e.jpg[/IMG][/URL]

[b]Hash:[/b]
B2AB8C6D5304C27FD0673CF26557CF34A5D97E0E

[/center]

